<mxfile host="app.diagrams.net" modified="2024-03-13T13:05:37.794Z" agent="Mozilla/5.0 (Windows NT 10.0; Win64; x64) AppleWebKit/537.36 (KHTML, like Gecko) Chrome/122.0.0.0 Safari/537.36" etag="tIkO8yBNY3PzxsYbL2eU" version="24.0.5" type="github">
  <diagram id="C5RBs43oDa-KdzZeNtuy" name="Page-1">
    <mxGraphModel dx="1434" dy="780" grid="1" gridSize="10" guides="1" tooltips="1" connect="1" arrows="1" fold="1" page="1" pageScale="1" pageWidth="827" pageHeight="1169" math="0" shadow="0">
      <root>
        <mxCell id="WIyWlLk6GJQsqaUBKTNV-0" />
        <mxCell id="WIyWlLk6GJQsqaUBKTNV-1" parent="WIyWlLk6GJQsqaUBKTNV-0" />
        <mxCell id="PWgybjxWVGojU53wuNPH-2" style="edgeStyle=orthogonalEdgeStyle;rounded=0;orthogonalLoop=1;jettySize=auto;html=1;" edge="1" parent="WIyWlLk6GJQsqaUBKTNV-1" source="PWgybjxWVGojU53wuNPH-0" target="PWgybjxWVGojU53wuNPH-1">
          <mxGeometry relative="1" as="geometry" />
        </mxCell>
        <mxCell id="PWgybjxWVGojU53wuNPH-0" value="Start of info interpretation" style="strokeWidth=2;html=1;shape=mxgraph.flowchart.start_1;whiteSpace=wrap;" vertex="1" parent="WIyWlLk6GJQsqaUBKTNV-1">
          <mxGeometry x="110" y="40" width="100" height="60" as="geometry" />
        </mxCell>
        <mxCell id="PWgybjxWVGojU53wuNPH-39" value="" style="edgeStyle=orthogonalEdgeStyle;rounded=0;orthogonalLoop=1;jettySize=auto;html=1;" edge="1" parent="WIyWlLk6GJQsqaUBKTNV-1" source="PWgybjxWVGojU53wuNPH-1" target="PWgybjxWVGojU53wuNPH-38">
          <mxGeometry relative="1" as="geometry" />
        </mxCell>
        <mxCell id="PWgybjxWVGojU53wuNPH-1" value="Initialize the firebase" style="strokeWidth=2;html=1;shape=mxgraph.flowchart.database;whiteSpace=wrap;" vertex="1" parent="WIyWlLk6GJQsqaUBKTNV-1">
          <mxGeometry x="130" y="170" width="60" height="60" as="geometry" />
        </mxCell>
        <mxCell id="PWgybjxWVGojU53wuNPH-6" style="edgeStyle=orthogonalEdgeStyle;rounded=0;orthogonalLoop=1;jettySize=auto;html=1;" edge="1" parent="WIyWlLk6GJQsqaUBKTNV-1" source="PWgybjxWVGojU53wuNPH-4">
          <mxGeometry relative="1" as="geometry">
            <mxPoint x="280" y="310" as="targetPoint" />
          </mxGeometry>
        </mxCell>
        <mxCell id="PWgybjxWVGojU53wuNPH-4" value="User enters what info they want to see" style="html=1;strokeWidth=2;shape=manualInput;whiteSpace=wrap;rounded=1;size=26;arcSize=11;" vertex="1" parent="WIyWlLk6GJQsqaUBKTNV-1">
          <mxGeometry x="110" y="280" width="100" height="60" as="geometry" />
        </mxCell>
        <mxCell id="PWgybjxWVGojU53wuNPH-5" style="edgeStyle=orthogonalEdgeStyle;rounded=0;orthogonalLoop=1;jettySize=auto;html=1;entryX=0.53;entryY=0.15;entryDx=0;entryDy=0;entryPerimeter=0;" edge="1" parent="WIyWlLk6GJQsqaUBKTNV-1" source="PWgybjxWVGojU53wuNPH-1" target="PWgybjxWVGojU53wuNPH-4">
          <mxGeometry relative="1" as="geometry" />
        </mxCell>
        <mxCell id="PWgybjxWVGojU53wuNPH-8" style="edgeStyle=orthogonalEdgeStyle;rounded=0;orthogonalLoop=1;jettySize=auto;html=1;" edge="1" parent="WIyWlLk6GJQsqaUBKTNV-1" source="PWgybjxWVGojU53wuNPH-7">
          <mxGeometry relative="1" as="geometry">
            <mxPoint x="440" y="310" as="targetPoint" />
          </mxGeometry>
        </mxCell>
        <mxCell id="PWgybjxWVGojU53wuNPH-10" value="True" style="edgeLabel;html=1;align=center;verticalAlign=middle;resizable=0;points=[];" vertex="1" connectable="0" parent="PWgybjxWVGojU53wuNPH-8">
          <mxGeometry x="-0.1553" y="2" relative="1" as="geometry">
            <mxPoint as="offset" />
          </mxGeometry>
        </mxCell>
        <mxCell id="PWgybjxWVGojU53wuNPH-11" style="edgeStyle=orthogonalEdgeStyle;rounded=0;orthogonalLoop=1;jettySize=auto;html=1;" edge="1" parent="WIyWlLk6GJQsqaUBKTNV-1" source="PWgybjxWVGojU53wuNPH-7">
          <mxGeometry relative="1" as="geometry">
            <mxPoint x="320" y="390" as="targetPoint" />
          </mxGeometry>
        </mxCell>
        <mxCell id="PWgybjxWVGojU53wuNPH-7" value="While loop to validate input" style="rhombus;whiteSpace=wrap;html=1;" vertex="1" parent="WIyWlLk6GJQsqaUBKTNV-1">
          <mxGeometry x="280" y="270" width="80" height="80" as="geometry" />
        </mxCell>
        <mxCell id="PWgybjxWVGojU53wuNPH-16" value="" style="edgeStyle=orthogonalEdgeStyle;rounded=0;orthogonalLoop=1;jettySize=auto;html=1;" edge="1" parent="WIyWlLk6GJQsqaUBKTNV-1" source="PWgybjxWVGojU53wuNPH-9">
          <mxGeometry relative="1" as="geometry">
            <mxPoint x="500" y="470" as="targetPoint" />
          </mxGeometry>
        </mxCell>
        <mxCell id="PWgybjxWVGojU53wuNPH-9" value="Process begins to show what info user requested" style="rounded=0;whiteSpace=wrap;html=1;" vertex="1" parent="WIyWlLk6GJQsqaUBKTNV-1">
          <mxGeometry x="440" y="280" width="120" height="60" as="geometry" />
        </mxCell>
        <mxCell id="PWgybjxWVGojU53wuNPH-13" value="" style="edgeStyle=orthogonalEdgeStyle;rounded=0;orthogonalLoop=1;jettySize=auto;html=1;" edge="1" parent="WIyWlLk6GJQsqaUBKTNV-1" source="PWgybjxWVGojU53wuNPH-12" target="PWgybjxWVGojU53wuNPH-7">
          <mxGeometry relative="1" as="geometry" />
        </mxCell>
        <mxCell id="PWgybjxWVGojU53wuNPH-12" value="Question loops indefinitely until correct input is given" style="rounded=0;whiteSpace=wrap;html=1;" vertex="1" parent="WIyWlLk6GJQsqaUBKTNV-1">
          <mxGeometry x="260" y="390" width="120" height="60" as="geometry" />
        </mxCell>
        <mxCell id="PWgybjxWVGojU53wuNPH-14" value="False" style="text;html=1;align=center;verticalAlign=middle;resizable=0;points=[];autosize=1;strokeColor=none;fillColor=none;" vertex="1" parent="WIyWlLk6GJQsqaUBKTNV-1">
          <mxGeometry x="295" y="358" width="50" height="30" as="geometry" />
        </mxCell>
        <mxCell id="PWgybjxWVGojU53wuNPH-18" style="edgeStyle=orthogonalEdgeStyle;rounded=0;orthogonalLoop=1;jettySize=auto;html=1;" edge="1" parent="WIyWlLk6GJQsqaUBKTNV-1" source="PWgybjxWVGojU53wuNPH-17">
          <mxGeometry relative="1" as="geometry">
            <mxPoint x="400" y="510" as="targetPoint" />
          </mxGeometry>
        </mxCell>
        <mxCell id="PWgybjxWVGojU53wuNPH-17" value="If input is 1" style="rhombus;whiteSpace=wrap;html=1;" vertex="1" parent="WIyWlLk6GJQsqaUBKTNV-1">
          <mxGeometry x="460" y="470" width="80" height="80" as="geometry" />
        </mxCell>
        <mxCell id="PWgybjxWVGojU53wuNPH-20" style="edgeStyle=orthogonalEdgeStyle;rounded=0;orthogonalLoop=1;jettySize=auto;html=1;" edge="1" parent="WIyWlLk6GJQsqaUBKTNV-1" source="PWgybjxWVGojU53wuNPH-19">
          <mxGeometry relative="1" as="geometry">
            <mxPoint x="250" y="510" as="targetPoint" />
          </mxGeometry>
        </mxCell>
        <mxCell id="PWgybjxWVGojU53wuNPH-19" value="If input is 2" style="rhombus;whiteSpace=wrap;html=1;" vertex="1" parent="WIyWlLk6GJQsqaUBKTNV-1">
          <mxGeometry x="320" y="470" width="80" height="80" as="geometry" />
        </mxCell>
        <mxCell id="PWgybjxWVGojU53wuNPH-21" value="If input is 3" style="rhombus;whiteSpace=wrap;html=1;" vertex="1" parent="WIyWlLk6GJQsqaUBKTNV-1">
          <mxGeometry x="170" y="470" width="80" height="80" as="geometry" />
        </mxCell>
        <mxCell id="PWgybjxWVGojU53wuNPH-43" value="" style="edgeStyle=orthogonalEdgeStyle;rounded=0;orthogonalLoop=1;jettySize=auto;html=1;" edge="1" parent="WIyWlLk6GJQsqaUBKTNV-1" source="PWgybjxWVGojU53wuNPH-25" target="PWgybjxWVGojU53wuNPH-42">
          <mxGeometry relative="1" as="geometry" />
        </mxCell>
        <mxCell id="PWgybjxWVGojU53wuNPH-25" value="Time is converted from time.time() format to standard date and time" style="rounded=0;whiteSpace=wrap;html=1;" vertex="1" parent="WIyWlLk6GJQsqaUBKTNV-1">
          <mxGeometry x="150" y="720" width="120" height="60" as="geometry" />
        </mxCell>
        <mxCell id="PWgybjxWVGojU53wuNPH-40" style="edgeStyle=orthogonalEdgeStyle;rounded=0;orthogonalLoop=1;jettySize=auto;html=1;entryX=0.5;entryY=0;entryDx=0;entryDy=0;" edge="1" parent="WIyWlLk6GJQsqaUBKTNV-1" source="PWgybjxWVGojU53wuNPH-29" target="PWgybjxWVGojU53wuNPH-25">
          <mxGeometry relative="1" as="geometry" />
        </mxCell>
        <mxCell id="PWgybjxWVGojU53wuNPH-29" value="For Loops begins" style="strokeWidth=2;html=1;shape=mxgraph.flowchart.decision;whiteSpace=wrap;" vertex="1" parent="WIyWlLk6GJQsqaUBKTNV-1">
          <mxGeometry x="160" y="585" width="100" height="100" as="geometry" />
        </mxCell>
        <mxCell id="PWgybjxWVGojU53wuNPH-31" style="edgeStyle=orthogonalEdgeStyle;rounded=0;orthogonalLoop=1;jettySize=auto;html=1;entryX=0.5;entryY=0;entryDx=0;entryDy=0;entryPerimeter=0;" edge="1" parent="WIyWlLk6GJQsqaUBKTNV-1" source="PWgybjxWVGojU53wuNPH-21" target="PWgybjxWVGojU53wuNPH-29">
          <mxGeometry relative="1" as="geometry" />
        </mxCell>
        <mxCell id="PWgybjxWVGojU53wuNPH-38" value="Data is collected and ready to be used&amp;nbsp;" style="whiteSpace=wrap;html=1;strokeWidth=2;" vertex="1" parent="WIyWlLk6GJQsqaUBKTNV-1">
          <mxGeometry x="240" y="170" width="120" height="60" as="geometry" />
        </mxCell>
        <mxCell id="PWgybjxWVGojU53wuNPH-45" value="" style="edgeStyle=orthogonalEdgeStyle;rounded=0;orthogonalLoop=1;jettySize=auto;html=1;" edge="1" parent="WIyWlLk6GJQsqaUBKTNV-1" source="PWgybjxWVGojU53wuNPH-42" target="PWgybjxWVGojU53wuNPH-44">
          <mxGeometry relative="1" as="geometry" />
        </mxCell>
        <mxCell id="PWgybjxWVGojU53wuNPH-42" value="Location key and value is found for the time" style="whiteSpace=wrap;html=1;rounded=0;" vertex="1" parent="WIyWlLk6GJQsqaUBKTNV-1">
          <mxGeometry x="150" y="860" width="120" height="60" as="geometry" />
        </mxCell>
        <mxCell id="PWgybjxWVGojU53wuNPH-47" value="" style="edgeStyle=orthogonalEdgeStyle;rounded=0;orthogonalLoop=1;jettySize=auto;html=1;" edge="1" parent="WIyWlLk6GJQsqaUBKTNV-1" source="PWgybjxWVGojU53wuNPH-44" target="PWgybjxWVGojU53wuNPH-46">
          <mxGeometry relative="1" as="geometry" />
        </mxCell>
        <mxCell id="PWgybjxWVGojU53wuNPH-44" value="Wasted minutes key and value is found for the time" style="whiteSpace=wrap;html=1;rounded=0;" vertex="1" parent="WIyWlLk6GJQsqaUBKTNV-1">
          <mxGeometry x="150" y="1000" width="120" height="60" as="geometry" />
        </mxCell>
        <mxCell id="PWgybjxWVGojU53wuNPH-49" value="" style="edgeStyle=orthogonalEdgeStyle;rounded=0;orthogonalLoop=1;jettySize=auto;html=1;" edge="1" parent="WIyWlLk6GJQsqaUBKTNV-1" source="PWgybjxWVGojU53wuNPH-46" target="PWgybjxWVGojU53wuNPH-48">
          <mxGeometry relative="1" as="geometry" />
        </mxCell>
        <mxCell id="PWgybjxWVGojU53wuNPH-46" value="Total study time key and value is found for the time" style="whiteSpace=wrap;html=1;rounded=0;" vertex="1" parent="WIyWlLk6GJQsqaUBKTNV-1">
          <mxGeometry x="150" y="1140" width="120" height="60" as="geometry" />
        </mxCell>
        <mxCell id="PWgybjxWVGojU53wuNPH-48" value="Each iteration of the loop is printed. Loop breaks when there is no more times to print" style="rhombus;whiteSpace=wrap;html=1;rounded=0;" vertex="1" parent="WIyWlLk6GJQsqaUBKTNV-1">
          <mxGeometry x="120" y="1270" width="180" height="180" as="geometry" />
        </mxCell>
        <mxCell id="PWgybjxWVGojU53wuNPH-55" value="" style="curved=1;endArrow=classic;html=1;rounded=0;entryX=0;entryY=0.5;entryDx=0;entryDy=0;entryPerimeter=0;exitX=0;exitY=0.5;exitDx=0;exitDy=0;" edge="1" parent="WIyWlLk6GJQsqaUBKTNV-1" source="PWgybjxWVGojU53wuNPH-48" target="PWgybjxWVGojU53wuNPH-29">
          <mxGeometry width="50" height="50" relative="1" as="geometry">
            <mxPoint x="80" y="1330" as="sourcePoint" />
            <mxPoint x="130" y="1280" as="targetPoint" />
            <Array as="points">
              <mxPoint x="130" y="1330" />
              <mxPoint x="80" y="1280" />
              <mxPoint x="-20" y="270" />
            </Array>
          </mxGeometry>
        </mxCell>
      </root>
    </mxGraphModel>
  </diagram>
</mxfile>
